<svg xmlns="http://www.w3.org/2000/svg" viewBox="0 0 1080 1350">
  <rect width="1080" height="1350" fill="#31E6D4"/>
  <g transform="translate(72 66) scale(1.2)" fill="#03211E"><path d="M7 33.5 24 8l17 25.5h-8.4L24 20.6l-8.6 12.9H7Z"/><path d="m15 41 9-13.5L33 41h-7l-2-3-2 3h-7Z" opacity=".55"/></g>
  <text x="145" y="112" fill="#03211E" font-family="Arial, sans-serif" font-size="25" font-weight="700" letter-spacing="6">LEVEL OS</text>
  <text x="72" y="302" fill="#075149" font-family="Arial, sans-serif" font-size="22" font-weight="700" letter-spacing="5">PRIVACIDADE COMO FUNDAÇÃO</text>
  <text x="72" y="425" fill="#03211E" font-family="Arial, sans-serif" font-size="82" font-weight="700" letter-spacing="-4">Seus dados</text>
  <text x="72" y="516" fill="#03211E" font-family="Arial, sans-serif" font-size="82" font-weight="700" letter-spacing="-4">servem a você.</text>
  <text x="72" y="607" fill="#087E72" font-family="Arial, sans-serif" font-size="82" font-weight="700" letter-spacing="-4">Não ao contrário.</text>
  <g transform="translate(540 868)"><circle r="176" fill="none" stroke="#03211E" stroke-opacity=".2" stroke-width="2"/><circle r="118" fill="none" stroke="#03211E" stroke-opacity=".38" stroke-width="2"/><rect x="-58" y="-28" width="116" height="94" rx="12" fill="#03211E"/><path d="M-34-28v-34c0-52 68-52 68 0v34" fill="none" stroke="#03211E" stroke-width="20" stroke-linecap="round"/><circle cy="14" r="12" fill="#31E6D4"/><path d="M0 26v18" stroke="#31E6D4" stroke-width="8" stroke-linecap="round"/></g>
  <text x="72" y="1174" fill="#075149" font-family="Arial, sans-serif" font-size="26">2FA · sessões protegidas · backup · isolamento por usuário</text>
  <text x="72" y="1305" fill="#03211E" font-family="Arial, sans-serif" font-size="20" font-weight="700" letter-spacing="4">SEGURANÇA É PRODUTO · LVLOS.COM</text>
</svg>
